<svg width="64" height="64" viewBox="0 0 64 64" fill="none" xmlns="http://www.w3.org/2000/svg">
<rect x="0.5" y="0.5" width="63" height="63" rx="31.5" fill="white" stroke="#F1F4F5"/>
<path d="M32.0004 53.7429C43.9297 53.7429 53.6004 44.0723 53.6004 32.1429C53.6004 20.2136 43.9297 10.543 32.0004 10.543C20.071 10.543 10.4004 20.2136 10.4004 32.1429C10.4004 44.0723 20.071 53.7429 32.0004 53.7429Z" fill="#00D95A"/>
<path d="M38.8572 38.9941C38.5452 39.4635 37.997 39.62 37.5276 39.3071C33.8527 37.0391 29.2385 36.5696 23.7641 37.8205C23.2164 37.977 22.747 37.5858 22.591 37.1168C22.435 36.5696 22.8252 36.1002 23.2946 35.9442C29.239 34.6151 34.4004 35.1623 38.4665 37.6645C39.0142 37.8992 39.0919 38.5251 38.8572 38.9941ZM40.7345 34.6928C40.3433 35.24 39.6396 35.4752 39.0919 35.0835C34.8689 32.5031 28.4561 31.7211 23.5294 33.285C22.9039 33.4415 22.1998 33.1285 22.0433 32.5031C21.8873 31.8776 22.1998 31.1735 22.8252 31.0175C28.5343 29.2971 35.5735 30.1573 40.4215 33.129C40.891 33.3632 41.1252 34.1456 40.7345 34.6928ZM42.9247 29.9226C42.534 30.4703 41.5946 30.7045 40.8914 30.3138C35.886 27.3416 27.5186 27.0287 22.7474 28.5147C21.9655 28.7495 21.1836 28.2805 20.9489 27.5763C20.7146 26.7944 21.1836 26.012 21.8878 25.7773C27.4399 24.1352 36.5906 24.4477 42.377 27.8888C43.0807 28.2805 43.3159 29.2184 42.9247 29.9226Z" fill="white"/>
</svg>
