<svg width="24" height="24" viewBox="0 0 24 24" fill="none" xmlns="http://www.w3.org/2000/svg">
<path d="M1 17H5V18H1V17ZM1 15.5H5V16.5H1V15.5ZM1 14H5V15H1V14Z" fill="#FF3D00"/>
<path d="M1 12.5H5V13.5H1V12.5ZM1 11H5V12H1V11Z" fill="#FF9E80"/>
<path d="M14.5 12.5H18.5V13.5H14.5V12.5ZM14.5 11H18.5V12H14.5V11Z" fill="#E6EE9C"/>
<path d="M10 12.5H14V13.5H10V12.5ZM10 11H14V12H10V11ZM10 9.5H14V10.5H10V9.5ZM10 8H14V9H10V8Z" fill="#F8BBD0"/>
<path d="M5.5 17H9.5V18H5.5V17ZM5.5 15.5H9.5V16.5H5.5V15.5ZM5.5 14H9.5V15H5.5V14Z" fill="#FFEB3B"/>
<path d="M10 17H14V18H10V17ZM10 15.5H14V16.5H10V15.5ZM10 14H14V15H10V14Z" fill="#FF4081"/>
<path d="M14.5 17H18.5V18H14.5V17ZM14.5 15.5H18.5V16.5H14.5V15.5ZM14.5 14H18.5V15H14.5V14Z" fill="#CDDC39"/>
<path d="M19 17H23V18H19V17ZM19 15.5H23V16.5H19V15.5ZM19 14H23V15H19V14Z" fill="#4FC3F7"/>
<path d="M19 12.5H23V13.5H19V12.5ZM19 11H23V12H19V11ZM19 9.5H23V10.5H19V9.5ZM19 8H23V9H19V8ZM19 6.5H23V7.5H19V6.5Z" fill="#B3E5FC"/>
</svg>
