<svg width="24" height="24" viewBox="0 0 24 24" fill="none" xmlns="http://www.w3.org/2000/svg">
<path fill-rule="evenodd" clip-rule="evenodd" d="M19.885 14.8835C19.3565 14.608 19.188 14.5145 18.9135 14.3105C18.0555 13.6725 17.5 12.651 17.5 11.5C17.5 10.292 18.112 9.227 19.043 8.5975C19.101 8.5585 19.7015 8.1875 19.9475 8.0195C20.85 7.404 21.5 6.422 21.5 5.25C21.5 3.455 20.045 2 18.25 2C17.1745 2 16.2235 2.525 15.632 3.33L15.629 3.3275C14.828 4.5 13.6565 5.5 11.75 5.5C10.5625 5.5 9.7705 5.388 8.401 4.3005C8.401 4.3005 8.3975 4.303 8.3965 4.304C8.146 4.1155 7.8375 4 7.5 4C6.6715 4 6 4.6715 6 5.5C6 6.2395 6.5 6.8855 6.5 8.5C6.5 12.5 3.3935 14.128 3.0455 14.3495C2.417 14.7485 2 15.4505 2 16.25C2 17.4925 3.0075 18.5 4.25 18.5C4.456 18.5 4.6555 18.4725 4.845 18.4205C5.799 18.1595 6.5 17.5 8.5 17.5C12.5 17.5 14.9435 20.2755 15.656 20.958C16.3295 21.6035 17.2435 22 18.25 22C20.321 22 22 20.321 22 18.25C22 16.767 21.1175 15.5265 19.885 14.8835Z" fill="#F57C00"/>
<path fill-rule="evenodd" clip-rule="evenodd" d="M11.375 8.5C9.787 8.5 8.5 9.955 8.5 11.75C8.5 13.545 9.787 15 11.375 15C12.963 15 14.25 13.545 14.25 11.75C14.25 9.955 12.963 8.5 11.375 8.5ZM11.75 13.75C10.7835 13.75 10 12.8545 10 11.75C10 10.6455 10.7835 9.75 11.75 9.75C12.7165 9.75 13.5 10.6455 13.5 11.75C13.5 12.8545 12.7165 13.75 11.75 13.75Z" fill="white"/>
<path fill-rule="evenodd" clip-rule="evenodd" d="M14.25 8.5C13.836 8.5 13.5 8.836 13.5 9.25C13.5 9.2835 13.5 10.0335 13.5 10.0625V13.625C13.5 13.625 13.5 14.1615 13.5 14.25C13.5 14.664 13.836 15 14.25 15C14.664 15 15 14.664 15 14.25C15 13.926 15 9.5315 15 9.25C15 8.836 14.664 8.5 14.25 8.5Z" fill="white"/>
</svg>
