<svg width="235" height="21" viewBox="0 0 235 21" fill="none" xmlns="http://www.w3.org/2000/svg">
<path d="M126.132 10.2857C126.132 12.8578 124.084 14.9286 121.574 14.9286C119.064 14.9286 117.016 12.8578 117.016 10.2857C117.016 7.71371 119.064 5.64288 121.574 5.64288C124.084 5.64288 126.132 7.71371 126.132 10.2857Z" fill="#F1F4F5" stroke="#E1E1E1"/>
<path d="M233.617 10.1429C233.617 12.7149 231.568 14.7857 229.058 14.7857C226.549 14.7857 224.5 12.7149 224.5 10.1429C224.5 7.57083 226.549 5.5 229.058 5.5C231.568 5.5 233.617 7.57083 233.617 10.1429Z" fill="#F1F4F5" stroke="#E1E1E1"/>
<path d="M19.7332 10.2857C19.7332 15.6981 15.4199 20.0714 10.1166 20.0714C4.81329 20.0714 0.500015 15.6981 0.500015 10.2857C0.500015 4.87337 4.81329 0.5 10.1166 0.5C15.4199 0.5 19.7332 4.87337 19.7332 10.2857Z" fill="white" stroke="#01B1EC"/>
<ellipse cx="10.1166" cy="10.2857" rx="5.0583" ry="5.14286" fill="#01B1EC"/>
<line x1="20.4079" y1="9.89285" x2="116" y2="9.89285" stroke="#01B1EC" stroke-width="0.5"/>
<path d="M127 10.0612H222.74" stroke="#01B1EC" stroke-width="0.5"/>
</svg>
